# xmcd
#
# Track frame offsets: 
#        150
#        17888
#        33815
#        54560
#        72541
#        86767
#        106193
#        127643
#        144244
#        158843
#
# Disc length: 2469 seconds
#
# Revision: 0
# Processed by: cddbd v1.5.2PL0 Copyright (c) Steve Scherf et al.
# Submitted via: ExactAudioCopy v0.95b4
#
DISCID=7909a30a
DTITLE=Love's Funny That Way - Kathie Baillie
DYEAR=2006
DGENRE=Country
TTITLE0=Love's Funny That Way
TTITLE1=Gone Away
TTITLE2=Never Knew Lonely
TTITLE3=Send A Message
TTITLE4=Anchor Me
TTITLE5=Old Glass Case
TTITLE6=All Fall Down
TTITLE7=One Thing
TTITLE8=Each Day I Live
TTITLE9=Come To Me
EXTD=
EXTT0=
EXTT1=
EXTT2=
EXTT3=
EXTT4=
EXTT5=
EXTT6=
EXTT7=
EXTT8=
EXTT9=
PLAYORDER=
